<svg version="1" xmlns="http://www.w3.org/2000/svg" width="5333.333" height="5333.333" viewBox="0 0 4000.000000 4000.000000"><path d="M0 2000v2000h4000V0H0v2000zM2260.5 490c25.9.5 52.4 1.4 59 2 6.6.5 26.7 1.7 44.7 2.5 18 .8 36 2 40 2.5s17.9 1.7 30.8 2.5c12.9.8 26.5 2 30.2 2.5 3.7.5 15.2 1.6 25.5 2.5 10.4.8 23.3 2.1 28.8 2.9 5.5.8 14.3 1.7 19.5 2.1 5.2.4 15.1 1.5 22 2.5s16.1 2.1 20.5 2.5c4.4.4 13.4 1.5 20 2.5s15.2 2.1 19 2.5c3.9.4 12 1.5 18 2.5 6.1 1 14.2 2.2 18 2.5 3.9.4 11.5 1.5 17 2.5 5.5 1.1 13.2 2.2 17 2.5 3.9.4 11.1 1.5 16 2.5 5 1 12.2 2.1 16 2.5 3.9.4 10.8 1.5 15.5 2.5 4.7 1 11.4 2.1 15 2.5 3.6.4 10.1 1.5 14.5 2.5s10.9 2.1 14.5 2.5c3.6.3 10.1 1.5 14.5 2.5s10.7 2.1 14 2.5c3.3.4 9.4 1.5 13.5 2.5s10.2 2.2 13.5 2.5c3.3.4 9.4 1.5 13.5 2.5s9.8 2.1 12.5 2.5c9.9 1.2 21.6 4.7 23 6.9 1.4 2.2 2.5 19.3 4.5 72.1.6 14.3 1.7 34.8 2.5 45.5.7 10.7 1.6 26.9 2 36 .3 9.1 1.3 24.1 2.1 33.5.8 9.3 1.9 26.7 2.4 38.5.6 11.8 1.9 30.3 3 41 1 10.7 2.1 24.9 2.5 31.5.3 6.6 1.5 19.2 2.5 28s2.1 21.2 2.5 27.5c.3 6.3 1.4 18.7 2.5 27.5 1 8.8 2.1 20.7 2.5 26.5.3 5.8 1.5 17.2 2.5 25.5 1 8.2 2.1 19.7 2.5 25.5.3 5.8 1.4 17.5 2.5 26 1 8.5 2.2 20 2.5 25.5.4 5.5 1.3 14.4 2.1 19.8s2.1 18.1 2.9 28.1c.8 10 1.9 20.5 2.4 23.2.5 2.8 1.5 11.6 2.1 19.7 1.5 19 .8 20.2-8.6 15.2-2.6-1.4-5.4-2.5-6.3-2.5-.9 0-2.6-.6-3.7-1.4-1.1-.8-4.5-2.2-7.7-3.1-3.1-.9-5.9-2-6.2-2.5-.3-.5-2.5-1.4-4.8-2.1-2.3-.6-5.5-1.7-7.2-2.5-2.9-1.3-9.7-3.8-19.5-7.1-2.5-.8-7-2.6-10.1-3.9-3.1-1.3-6.2-2.4-6.8-2.4-.7 0-3.1-.8-5.4-1.9-2.3-1-5.8-2.2-7.7-2.6-1.9-.4-5.1-1.5-7-2.5-1.9-.9-5.7-2.3-8.5-2.9-2.7-.7-5.4-1.6-6-2.1-.5-.4-3-1.3-5.5-2-2.5-.6-6.7-2-9.5-3-2.7-1-9.7-3.3-15.5-5-5.8-1.7-12.7-3.9-15.5-4.9-6.7-2.4-18.7-6-25.5-7.5-3-.8-7.1-2-9.1-2.9-2-.8-5.6-1.8-8-2.2-2.4-.4-6.6-1.6-9.4-2.6-2.7-1-7.6-2.2-10.8-2.8-3.1-.6-6.6-1.5-7.7-2.1-1.2-.6-5.1-1.7-8.8-2.5-8.2-1.6-22.3-5-31.7-7.6-3.8-1-10-2.3-13.6-2.9-3.6-.5-7.9-1.4-9.5-2-1.7-.6-7.7-1.9-13.4-2.9-22.7-4.1-28.9-5.2-38-7.1-5.2-1-12.4-2.2-16-2.6-3.6-.3-10.3-1.4-15-2.4-4.7-1-11.6-2.1-15.5-2.5-3.8-.3-11.7-1.5-17.5-2.5-5.8-1-14.1-2.2-18.5-2.5-4.4-.3-14.1-1.5-21.5-2.5-7.4-1.1-21.6-2.4-31.5-3-9.9-.6-21.4-1.6-25.5-2.1-12.3-1.6-84.7-2.3-98.5-1-6.6.7-19.9 1.8-29.5 2.6-15.9 1.3-28 3-49 7-14.2 2.6-26.5 5.4-29.5 6.5-1.6.6-6 1.8-9.8 2.6-3.7.7-8 2-9.5 2.8-1.5.7-4.4 1.6-6.6 2-2.1.4-5.7 1.6-8 2.6-2.2 1-6.1 2.5-8.6 3.3-8.5 2.8-13.5 4.7-17.5 6.6-2.2 1.1-7.1 3.4-11 5.1-3.8 1.7-7.9 3.6-9 4.2-1.1.7-3.3 1.8-5 2.6-24.3 12-53.9 33.3-69.8 50.1-7.3 7.8-16.2 19.1-20.5 26.1-3.2 5.2-10.2 19.6-10.2 20.9 0 .6-.8 2.8-1.8 4.9-1.1 2-3.1 9.9-4.7 17.5-2.4 12.4-2.7 15.5-2.3 28.5.4 13.7 2.1 25.9 5.3 39.2 2.2 9.1 5.6 20.4 6.4 21.5.5.5 1.2 2.1 1.6 3.5.6 2.3 5.5 13.3 7.6 17.2 29 54.6 84.2 114.2 178.4 192.8 30 25.1 29.9 25 104.5 84.6 20.6 16.4 32.8 26.1 47.4 37.4 8.2 6.3 18.8 14.6 23.6 18.5 4.9 3.8 13.7 10.8 19.6 15.5 6 4.7 15.6 12.3 21.5 17 5.9 4.7 18.7 14.8 28.4 22.5 24.1 18.9 58.1 46 68.4 54.2 4.6 3.8 10.7 8.5 13.5 10.7 9.3 7 34.5 28.4 53.6 45.5 39.2 35.2 100.4 94.9 123.6 120.6 35.7 39.7 45.1 50.7 65 76 26.8 34.1 56.3 76.4 70.7 101.4 15.8 27.5 22.6 40.7 33.3 64.8 1.4 3.2 3.2 7.1 3.9 8.8.8 1.6 3 7.3 5 12.5s4.4 11.5 5.4 14 2.1 5.8 2.5 7.5c.4 1.6 1.5 5.2 2.5 8 10.1 27.4 20.8 79.6 23.2 113 .8 11.7 1.5 16.2 2.5 16.8 2 1.2 2.1 81.9 0 83.6-.9.8-1.7 6.3-2.5 18.4-.7 9.4-2.1 22.4-3.1 28.7-1 6.3-2.1 14.4-2.5 18-.4 3.6-1.5 10.1-2.5 14.5s-2.1 10-2.4 12.5c-.8 5.5-5 23.9-7.7 33.5-1 3.8-2.5 9.5-3.3 12.5-3.6 13.9-9.3 32.1-13.6 44-1.7 4.7-4 11-5 14s-3.5 9.3-5.5 14c-2 4.7-4 9.6-4.5 11-.4 1.4-2 5.2-3.5 8.5s-3.6 8.2-4.8 11c-2.2 4.9-23.1 46.8-26.8 53.5-14.2 25.8-39.3 64.2-55.3 84.6-2.3 2.9-6.3 8-9.1 11.5-42.4 53.8-96.9 103.4-160.8 146.3-17.1 11.4-21.8 14.4-43.5 27.3-24.1 14.4-56.6 31.6-81.7 43.2-3.8 1.8-9.2 4.3-12 5.6-5.2 2.5-18.8 8.3-26.5 11.4-2.5 1-6.7 2.8-9.5 4-16.1 6.7-33.8 13.1-59 21.5-14.3 4.8-20.5 6.7-44.5 13.6-22 6.4-45.5 11.9-87 20.4-18.9 3.9-59.1 10.9-75 13-5.8.8-15.4 2.1-21.5 3-24 3.3-44.7 5.8-59.5 7.1-8.5.8-22.7 2.1-31.5 2.9-8.8.8-23.1 1.9-31.8 2.4-9.5.5-16.2 1.3-16.9 2-1.7 1.7-228 1.7-231.1 0-1.2-.6-10.4-1.5-21.2-2-10.4-.5-33.2-2-50.5-3.3-17.3-1.3-35.5-2.7-40.5-3-4.9-.3-14.4-1.2-21-2s-18.7-1.9-27-2.5c-8.2-.6-19.3-1.7-24.5-2.5-5.2-.7-15.5-1.9-22.8-2.5-7.3-.6-15.6-1.5-18.4-2-2.7-.6-12.1-1.7-20.7-2.5-8.6-.9-17.4-2-19.6-2.5-2.2-.4-8.9-1.3-15-2-6-.6-14.6-1.7-19-2.5s-14.1-2.2-21.5-3c-7.4-.8-15-1.9-16.8-2.4-1.9-.6-7.9-1.5-13.5-2.1-5.6-.7-13.6-2-17.7-3s-11.1-2.1-15.5-2.5c-4.4-.3-11.1-1.3-15-2.1-3.8-.8-12.8-2.1-19.9-2.9-7-.8-15.4-2.1-18.5-2.9-3.1-.8-9-1.7-13.1-2-4.1-.3-11.5-1.5-16.5-2.5-11.2-2.4-28.7-4.5-38-4.5-19.6 0-41.8 12.2-53.5 29.4-8 11.8-14.8 28.9-17.2 43.5-.5 3.3-1.6 8.5-2.5 11.5-.8 3-1.9 8.6-2.5 12.5-.6 3.8-1.9 10.1-3 13.8-1 3.8-2.3 10.3-2.8 14.5-.5 4.2-1.6 9.4-2.4 11.4-.9 2-2 7.4-2.6 12-.5 4.6-1.6 10.2-2.4 12.4-.8 2.3-2 7.8-2.5 12.2-.6 4.5-1.7 9.7-2.5 11.7-.9 2-2 7.1-2.5 11.3-.6 4.2-1.7 9.7-2.5 12.1-.9 2.4-2.1 7.3-2.6 11-.6 3.6-1.8 8.8-2.7 11.6-.9 2.7-2.4 8.6-3.3 13-1 4.4-2.7 11.8-3.9 16.5-4.6 17.6-6.1 23.9-9 36.5-1.7 7.1-3.3 15.1-3.6 17.7-.3 2.6-1.1 5-1.6 5.4-2 1.2-5.6-.6-6.8-3.3-1.2-2.7-3.7-6.5-11.9-18.3-4.9-7.1-12.2-17.4-14.7-20.9-1.1-1.6-2.9-4.1-4-5.7-1.1-1.6-4-5.6-6.5-8.9-2.5-3.3-5.4-7.3-6.5-8.9-1.1-1.6-3-4.3-4.3-6-1.2-1.7-3.3-4.7-4.7-6.6-1.3-1.9-3.8-5.3-5.4-7.5-1.7-2.2-4-5.6-5.1-7.5-1.1-1.9-3.6-5.5-5.5-8s-3.9-5.4-4.4-6.6c-.5-1.1-1.6-2.7-2.3-3.5-2.4-2.4-7.5-10.3-8.2-12.7-.4-1.2-1.1-2.2-1.5-2.2-.9 0-8.1-10.5-8.1-11.8 0-.5-.9-1.7-2.1-2.8-1.2-1-3-3.5-4-5.4-2.3-4.1-4.7-7.8-7.2-11.1-1-1.3-3.6-5.1-5.8-8.4-2.1-3.3-4.5-6.9-5.2-8-5-7.4-9.5-14.1-11.1-16.8-1.1-1.8-5.8-8.8-10.5-15.7-4.7-6.9-21.2-31.3-36.6-54.3-15.4-22.9-48.6-72.4-73.8-109.9-123.8-184.3-200.8-300.1-205.4-309.3-2.8-5.5-6.1-12.5-7.3-15.5-2.6-6.5-6.6-14.7-12.4-25-6.3-11.3-7.9-13.9-10.9-17.7-2.9-3.9-3.5-8.4-1.3-10.5.7-.7 4.8-3.8 9.1-6.8 4.2-3 10.2-7.5 13.4-10 3.1-2.5 6.7-5.3 8.1-6.2 1.4-.9 8.1-6.6 15-12.8 6.9-6.1 17.9-14.9 24.5-19.6 17.9-12.8 110.7-73.1 278.5-181.2 48.7-31.4 93.9-60.5 100.5-64.8 6.6-4.3 15.8-10.2 20.5-13.2 11.8-7.6 21-13.5 24.4-15.8 1.6-1 3.6-2.4 4.5-2.9.9-.6 2.9-2 4.4-3.3 1.6-1.2 3.3-2.2 3.9-2.2.5 0 2.3-1 3.8-2.3 1.5-1.2 4.2-3.1 6.1-4.2 1.8-1.1 4-2.5 4.9-3 .8-.6 4.9-3.2 9-5.9s9.9-6.5 12.9-8.5c2.9-2 6.8-4.5 8.6-5.6 1.8-1.1 4.6-2.9 6.1-3.9 1.6-1.1 5.8-3.8 9.4-6.1 3.6-2.3 7.8-5 9.4-6.1 1.6-1 3.6-2.4 4.5-2.9 1.5-.9 9-5.8 18.5-12.1 1.6-1 3.6-2.4 4.5-2.9 2.2-1.4 15-9.7 18.5-12.1 1.6-1 3.6-2.4 4.5-2.9.9-.6 3.1-2 4.8-3.3 1.7-1.2 3.5-2.2 4.1-2.2.5 0 1.5-.7 2.2-1.5.7-.8 4.5-3.3 8.6-5.6 4-2.2 7.6-4.4 7.9-4.9.3-.5 3.8-2.7 7.8-5 8.3-4.8 20-11.8 23.7-14.1 1.4-.9 7.9-4.9 14.5-8.9 15.6-9.5 21.1-12.9 32.2-20.1 13.2-8.5 13.5-8.3 10.7 5.8-.8 4.3-2.4 13.2-3.4 19.8-1.1 6.6-2.6 16-3.4 21-.9 4.9-2.5 14.6-3.6 21.5-1.2 6.9-2.8 16.1-3.6 20.5-.8 4.4-2.1 12.3-2.9 17.6-.8 5.3-1.9 10.9-2.5 12.5-.6 1.5-1.6 6.4-2.1 10.9-.6 4.4-1.7 10.2-2.5 13-.8 2.7-1.9 8.5-2.5 12.7-.5 4.2-1.6 9.5-2.4 11.7-.8 2.3-1.9 7.7-2.5 12.1-.6 4.4-1.8 10.1-2.6 12.7-.8 2.7-1.9 8.4-2.5 12.8-.5 4.4-1.7 10-2.5 12.4-.8 2.5-1.9 7.9-2.5 12-.5 4.2-1.6 9.6-2.4 12.1-.8 2.5-1.9 8.4-2.4 13.1-.6 4.8-1.8 11-2.7 13.9-1.5 4.7-1.6 6.6-.6 15.9.6 5.8 1.8 13.3 2.7 16.6 3.7 14.4 13.8 29.4 25.5 38 6.7 4.9 17.5 10.1 23 11 2.5.4 7 1.7 10 3 3 1.2 7.8 2.5 10.7 2.9 2.8.4 6.9 1.4 8.9 2.2 2.1.9 6.5 2 9.8 2.5 3.4.6 9 1.9 12.6 2.9 3.6 1 9.9 2.4 14 3.1 4.1.6 8.2 1.5 9.2 2 .9.5 6.3 1.5 12 2.3 5.7.8 11.7 2 13.2 2.6 1.6.6 7.4 1.7 13 2.5s11.4 1.9 12.9 2.4c1.6.6 8.2 1.8 14.8 2.6 6.5.8 14.3 2.1 17.2 2.9 2.8.8 9.3 1.7 14.2 2.1 5 .4 12.8 1.5 17.5 2.5 4.7 1 13 2.1 18.5 2.5 5.5.3 15.2 1.4 21.5 2.5 6.3 1 17.8 2.1 25.5 2.5 7.7.3 21.7 1.3 31 2.1 24 2 67.9 2.8 87.5 1.6 9.1-.6 24.8-1.6 35-2.2 32.2-1.9 71.6-7.2 95-12.7 3.6-.8 9.7-2.2 13.5-2.9 3.9-.8 9.6-2.3 12.8-3.4 3.1-1.1 6.3-2 7-2 1.9 0 20.7-5.9 25.5-8.1 2.3-1 4.7-1.9 5.4-1.9 1 0 4.5-1.4 20.3-8.2 28.1-12.2 50-26.4 67.5-43.8 22.2-22.1 34-44.9 39.6-76.3 2.3-12.7 2.5-16.1 2.1-31.2-.7-24-4.6-46.1-10.9-62-19.6-49.1-55.6-94.3-119.3-149.6-15.1-13-42.7-37.1-51.9-45.3-7.4-6.5-26-22.7-62.7-54.6-12.3-10.7-22.6-19.7-22.9-20-.3-.4-9.3-8.2-20-17.5-10.7-9.2-22.6-19.6-26.5-23-12.8-11.4-39.7-34.9-51.4-44.9-6.4-5.5-15.6-13.6-20.6-18-4.9-4.5-13.7-12.2-19.5-17.1-5.8-4.9-14.3-12.4-19-16.6-4.7-4.2-13.7-12.1-20-17.5-6.4-5.4-17.1-14.8-23.9-20.7-6.8-6-23.9-20.6-38-32.7-25.5-21.7-53.3-45.7-66.6-57.5-3.8-3.4-15.3-13.5-25.5-22.6-10.2-9-18.7-16.6-19-16.9-.3-.3-6.6-6.2-14-13-22.3-20.5-59.8-58-82.5-82.5-50.5-54.5-88.9-105.1-118.6-156.5-12.4-21.4-29.4-56.1-37.8-77l-4-10c-1.3-3-2.9-7.8-3.8-10.5-.8-2.8-1.9-5.5-2.3-6-.5-.6-1.5-3.5-2.3-6.5-.8-3-2.2-7.5-3-10-5.2-15.1-15.6-56.3-17.2-68-.4-2.5-1.5-8.6-2.5-13.5-1-5-2.1-12.4-2.5-16.5-.3-4.1-1.2-11.6-2-16.5-2.1-13.3-2.4-18.3-3.5-48.9-1.3-34.1.1-80.4 3-101.1 1-7.7 2.2-16.7 2.5-20 .8-7.9 5.1-31.9 7.5-42 1.1-4.4 2.2-9.8 2.5-12 .4-2.2 1.5-6.7 2.5-10 1.1-3.3 2.2-7.8 2.6-10 .3-2.2 1.6-7.4 2.9-11.5 1.3-4.1 3.5-11.6 5-16.5 1.5-5 3.8-11.8 5.1-15.2 1.3-3.4 2.4-6.9 2.4-7.8 0-.9.7-3 1.6-4.7.9-1.7 2.3-5.4 3.1-8.2.8-2.8 2.1-6 2.9-7.1.8-1.1 1.4-2.6 1.4-3.3 0-.8 1.1-4 2.4-7.1 1.4-3.1 3.9-9 5.6-13.1 9.3-21.9 30.7-63.7 41.4-80.5 1.1-1.7 2.9-4.6 4.1-6.5 16.8-27.2 33.7-50.9 54.3-76.3 26.2-32.2 53.1-59.7 83.5-85 22.2-18.5 23.9-19.8 56.2-42.7 4-2.8 25.6-17 26-17 .4 0 21.5-12.8 22.8-13.8.7-.5 4.8-2.9 9.2-5.3 4.4-2.3 10-5.4 12.5-6.7 21.6-12 69.7-35.3 83-40.2 1.9-.7 4-1.7 4.6-2.2.6-.4 3.1-1.4 5.5-2.2 2.4-.8 8.2-3.1 12.9-5.1 4.7-2 10.1-4.1 12-4.7 1.9-.5 4.9-1.6 6.5-2.4 1.7-.7 5.7-2.2 9-3.3 3.3-1.1 9.8-3.3 14.5-5.1 4.7-1.7 11.1-3.7 14.3-4.5 3.2-.8 7-2.1 8.5-2.9 1.5-.7 4.5-1.7 6.7-2.1 2.2-.3 6-1.5 8.5-2.5 4.5-1.8 10.2-3.4 25.3-7 4.3-1 9.4-2.5 11.5-3.3 2-.8 6-1.8 8.7-2.1 2.8-.4 7.7-1.6 11-2.5 3.3-1 8.5-2.2 11.5-2.6 3-.4 7.1-1.3 9.1-2s7.2-1.8 11.5-2.5c4.4-.6 11.7-1.9 16.4-3 4.7-1 11.4-2.2 15-2.6 3.6-.3 10.3-1.4 15-2.4 4.7-1 11.7-2.1 15.5-2.5 3.9-.3 12-1.5 18-2.5 6.1-1 14.6-2.1 19-2.5 4.4-.3 13.6-1.5 20.5-2.5s17-2.1 22.5-2.5c5.5-.3 17.2-1.5 26-2.5s22.1-2.1 29.5-2.5c7.4-.3 22.3-1.3 33-2.1 36.8-3 115-4 188.5-2.4z"/></svg>